HIERARCHY
ROOT joint_Root
{
	OFFSET 0.0 0.0 0.0
	CHANNELS 6 Xposition Yposition Zposition Zrotation Xrotation Yrotation 
	JOINT Hips
	{
		OFFSET 4.5925 91.4895 -427.239
		CHANNELS 6 Xposition Yposition Zposition Zrotation Xrotation Yrotation 
		JOINT Spine
		{
			OFFSET 15.7357 0.0 0.0
			CHANNELS 6 Xposition Yposition Zposition Zrotation Xrotation Yrotation 
			JOINT Chest
			{
				OFFSET 8.98455 -0.406207 0.0
				CHANNELS 6 Xposition Yposition Zposition Zrotation Xrotation Yrotation 
				JOINT Neck
				{
					OFFSET 16.3773 0.0 0.0
					CHANNELS 6 Xposition Yposition Zposition Zrotation Xrotation Yrotation 
					JOINT Head
					{
						OFFSET 6.45672 0.0 0.0
						CHANNELS 6 Xposition Yposition Zposition Zrotation Xrotation Yrotation 
						End Site
						{
							OFFSET 0.0 0.0 0.0
						}
					}
				}
				JOINT Shoulder_L
				{
					OFFSET 12.9942 -0.242716 4.98039
					CHANNELS 6 Xposition Yposition Zposition Zrotation Xrotation Yrotation 
					JOINT UpperArm_L
					{
						OFFSET 5.34809 0.0 0.0
						CHANNELS 6 Xposition Yposition Zposition Zrotation Xrotation Yrotation 
						JOINT LowerArm_L
						{
							OFFSET 24.3286 1.87007e-05 0.0
							CHANNELS 6 Xposition Yposition Zposition Zrotation Xrotation Yrotation 
							JOINT Hand_L
							{
								OFFSET 22.2916 0.0 0.0
								CHANNELS 6 Xposition Yposition Zposition Zrotation Xrotation Yrotation 
								End Site
								{
									OFFSET 0.0 0.0 0.0
								}
							}
						}
					}
				}
				JOINT Shoulder_R
				{
					OFFSET 12.9945 -0.242716 -4.98039
					CHANNELS 6 Xposition Yposition Zposition Zrotation Xrotation Yrotation 
					JOINT UpperArm_R
					{
						OFFSET -5.34813 0.0 0.0
						CHANNELS 6 Xposition Yposition Zposition Zrotation Xrotation Yrotation 
						JOINT LowerArm_R
						{
							OFFSET -24.3289 0.000322201 0.0
							CHANNELS 6 Xposition Yposition Zposition Zrotation Xrotation Yrotation 
							JOINT Hand_R
							{
								OFFSET -22.2915 -0.000108084 0.0
								CHANNELS 6 Xposition Yposition Zposition Zrotation Xrotation Yrotation 
								End Site
								{
									OFFSET 0.0 0.0 0.0
								}
							}
						}
					}
				}
			}
		}
		JOINT UpperLeg_L
		{
			OFFSET -2.19248 -6.46944 0.0
			CHANNELS 6 Xposition Yposition Zposition Zrotation Xrotation Yrotation 
			JOINT LowerLeg_L
			{
				OFFSET 39.0811 0.0 -1.23785e-05
				CHANNELS 6 Xposition Yposition Zposition Zrotation Xrotation Yrotation 
				JOINT Foot_L
				{
					OFFSET 40.9854 0.0 -1.26872e-05
					CHANNELS 6 Xposition Yposition Zposition Zrotation Xrotation Yrotation 
					JOINT Toes_L
					{
						OFFSET 11.7543 0.0 0.0
						CHANNELS 6 Xposition Yposition Zposition Zrotation Xrotation Yrotation 
						End Site
						{
							OFFSET 0.0 0.0 0.0
						}
					}
				}
			}
		}
		JOINT UpperLeg_R
		{
			OFFSET -2.19251 6.46944 0.0
			CHANNELS 6 Xposition Yposition Zposition Zrotation Xrotation Yrotation 
			JOINT LowerLeg_R
			{
				OFFSET -39.0811 -0.00228153 -0.0401928
				CHANNELS 6 Xposition Yposition Zposition Zrotation Xrotation Yrotation 
				JOINT Foot_R
				{
					OFFSET -40.9854 0.0 0.0
					CHANNELS 6 Xposition Yposition Zposition Zrotation Xrotation Yrotation 
					JOINT Toes_R
					{
						OFFSET -11.7543 0.0 0.0
						CHANNELS 6 Xposition Yposition Zposition Zrotation Xrotation Yrotation 
						End Site
						{
							OFFSET 0.0 0.0 0.0
						}
					}
				}
			}
		}
	}
}
MOTION
Frames:	6
Frame Time:	0.0333333
0.000000 0.000000 0.000000 0.000000 0.000000 -0.000000 -3.064900 83.660100 -3.655260 87.323100 -4.346200 8.831390 15.735700 0.000005 -0.000001 88.276900 82.018000 -89.110700 8.984550 -0.406207 -0.000000 8.187990 -0.480966 -1.631710 16.377300 -0.000001 -0.000001 -2.087150 -1.731700 1.964970 6.456720 -0.000001 -0.000000 -1.991460 -0.062212 0.875102 12.994200 -0.242716 4.980390 -91.336800 4.222970 -72.416200 5.348090 -0.000007 -0.000001 -57.850300 34.883800 -16.083400 24.328600 0.000019 0.000005 10.424700 17.007100 -32.171900 22.291600 -0.000001 0.000005 10.716100 5.302290 0.007838 12.994500 -0.242716 -4.980390 88.690000 8.025910 -80.698600 -5.348130 -0.000001 -0.000004 -53.372700 44.614500 -14.720200 -24.328900 0.000322 -0.000009 -3.307110 -4.196120 -38.316500 -22.291500 -0.000108 -0.000004 4.317480 5.402480 -2.939550 -2.192480 -6.469440 -0.000000 -170.516000 -13.103600 -17.219700 39.081100 -0.000007 -0.000012 -0.316571 0.191299 58.856900 40.985400 -0.000006 -0.000013 0.234653 6.986800 -81.996700 11.754300 -0.000000 0.000003 -0.000082 -0.000868 -16.611000 -2.192510 6.469440 -0.000001 -177.684000 11.222600 162.418000 -39.081100 -0.002282 -0.040193 0.078228 -0.047004 57.929200 -40.985400 0.000008 0.000006 8.751550 1.677450 -82.120600 -11.754300 -0.000006 -0.000006 -0.001262 -0.019066 -17.348400
0.000000 0.000000 0.000000 0.000000 0.000000 -0.000000 -3.699640 84.341400 -3.155550 87.007600 -3.813790 9.219170 15.735700 0.000005 -0.000001 88.426600 82.297600 -90.219600 8.984550 -0.406207 -0.000000 7.629140 -0.419190 -3.554290 16.377300 -0.000001 -0.000001 -1.289920 -1.872630 2.099330 6.456720 -0.000001 -0.000000 -1.371110 -0.547979 3.031810 12.994200 -0.242716 4.980390 -91.328300 4.024510 -71.717200 5.348090 -0.000007 -0.000001 -58.890400 30.547100 -15.807900 24.328600 0.000019 0.000005 10.199300 18.473500 -29.587100 22.291600 -0.000001 0.000005 11.737700 5.265560 1.011690 12.994500 -0.242716 -4.980390 88.898900 6.352930 -80.144100 -5.348130 -0.000001 -0.000004 -49.342200 46.720800 -14.625900 -24.328900 0.000322 -0.000009 -0.989932 -0.993840 -44.876100 -22.291500 -0.000108 -0.000004 -8.893920 5.298140 0.268610 -2.192480 -6.469440 -0.000000 -169.664000 -12.522500 -15.455000 39.081100 -0.000007 -0.000012 -0.312929 0.205318 56.731400 40.985400 -0.000006 -0.000013 -0.282660 7.309560 -81.189200 11.754300 -0.000000 0.000003 -0.000088 -0.000922 -16.613000 -2.192510 6.469440 -0.000001 -177.381000 12.645700 164.430000 -39.081100 -0.002282 -0.040193 0.076896 -0.050234 55.711500 -40.985400 0.000008 0.000006 9.182300 2.422860 -81.391800 -11.754300 -0.000006 -0.000006 -0.001227 -0.018580 -17.328700
0.000000 0.000000 0.000000 0.000000 0.000000 -0.000000 -4.269900 86.116300 -2.364300 86.594700 -2.727160 9.219510 15.735700 0.000005 -0.000001 86.072800 82.856900 -88.870000 8.984550 -0.406207 -0.000000 6.470370 -0.944023 -5.534790 16.377300 -0.000001 -0.000001 0.240958 -1.812640 2.268350 6.456720 -0.000001 -0.000000 -0.676836 -0.671379 5.571440 12.994200 -0.242716 4.980390 -91.304900 3.734980 -70.725500 5.348090 -0.000007 -0.000001 -60.168400 26.330400 -14.502400 24.328600 0.000019 0.000005 8.359940 16.924400 -26.782800 22.291600 -0.000001 0.000005 12.927700 5.208180 2.512070 12.994500 -0.242716 -4.980390 89.177400 4.232300 -78.986100 -5.348130 -0.000001 -0.000004 -39.563000 47.498600 -16.809800 -24.328900 0.000322 -0.000009 -2.096710 -1.454490 -55.195500 -22.291500 -0.000108 -0.000004 -18.478400 5.160100 3.721340 -2.192480 -6.469440 -0.000000 -169.135000 -10.969100 -12.257300 39.081100 -0.000007 -0.000012 -0.310739 0.251582 51.006300 40.985400 -0.000006 -0.000013 -1.121010 7.153750 -78.771400 11.754300 -0.000000 0.000003 -0.000066 -0.000718 -16.605300 -2.192510 6.469440 -0.000001 -177.082000 14.211300 168.084000 -39.081100 -0.002282 -0.040193 0.071729 -0.057843 49.813600 -40.985400 0.000008 0.000006 9.233420 3.307070 -78.837100 -11.754300 -0.000006 -0.000006 -0.001748 -0.025522 -17.610900
0.000000 0.000000 0.000000 0.000000 0.000000 -0.000000 -4.585520 88.135900 -1.757810 86.567200 -2.148640 8.081260 15.735700 0.000005 -0.000001 82.764500 83.915800 -86.498700 8.984550 -0.406207 -0.000000 4.271370 -1.416590 -7.407180 16.377300 -0.000001 -0.000001 2.162940 -1.687660 2.206860 6.456720 -0.000001 -0.000000 0.243612 -0.211355 7.315220 12.994200 -0.242716 4.980390 -91.168400 3.145600 -69.611100 5.348090 -0.000007 -0.000001 -61.216500 23.584300 -12.157000 24.328600 0.000019 0.000005 6.791590 14.476100 -25.474300 22.291600 -0.000001 0.000005 13.242100 5.188800 2.998840 12.994500 -0.242716 -4.980390 89.533400 2.067000 -77.265300 -5.348130 -0.000001 -0.000004 -24.980900 42.555500 -20.465200 -24.328900 0.000322 -0.000009 -4.125990 -1.790350 -66.560200 -22.291500 -0.000108 -0.000004 -20.274800 5.134970 4.299870 -2.192480 -6.469440 -0.000000 -169.327000 -10.363300 -9.425550 39.081100 -0.000007 -0.000012 -0.279421 0.292942 43.647400 40.985400 -0.000006 -0.000013 -1.761390 6.958350 -75.456300 11.754300 -0.000000 0.000003 -0.000038 -0.000443 -16.594800 -2.192510 6.469440 -0.000001 -176.982000 15.224900 170.925000 -39.081100 -0.002282 -0.040193 0.060817 -0.062460 42.655300 -40.985400 0.000008 0.000006 8.974630 4.569720 -75.137800 -11.754300 -0.000006 -0.000006 -0.024641 -0.060909 -18.017900
0.000000 0.000000 0.000000 0.000000 0.000000 -0.000000 -4.516230 89.685600 -1.393890 86.730500 -2.013700 6.617830 15.735700 0.000005 -0.000001 78.918400 84.924900 -83.198100 8.984550 -0.406207 -0.000000 2.145370 -1.740150 -8.518810 16.377300 -0.000001 -0.000001 3.525590 -1.545860 1.847630 6.456720 -0.000001 -0.000000 0.832008 0.500378 6.910500 12.994200 -0.242716 4.980390 -91.014700 2.637170 -68.946400 5.348090 -0.000007 -0.000001 -61.857800 22.296200 -9.118720 24.328600 0.000019 0.000005 6.946730 14.162700 -26.470700 22.291600 -0.000001 0.000005 11.848500 5.194400 2.855470 12.994500 -0.242716 -4.980390 90.171900 -0.676918 -75.775000 -5.348130 -0.000001 -0.000004 -13.777000 26.343200 -21.252500 -24.328900 0.000322 -0.000009 -6.219250 -2.101000 -71.404600 -22.291500 -0.000108 -0.000004 -17.746000 5.229120 2.021110 -2.192480 -6.469440 -0.000000 -169.958000 -10.366300 -7.448110 39.081100 -0.000007 -0.000012 -0.231089 0.304994 37.151100 40.985400 -0.000006 -0.000013 -2.079550 6.619030 -72.445200 11.754300 -0.000000 0.000003 -0.000021 -0.000264 -16.587900 -2.192510 6.469440 -0.000001 -177.315000 16.742000 172.725000 -39.081100 -0.002282 -0.040193 0.049381 -0.062150 36.562700 -40.985400 0.000008 0.000006 8.710610 6.773110 -71.838000 -11.754300 -0.000006 -0.000006 -0.004179 -0.053290 -18.740900
0.000000 0.000000 0.000000 0.000000 0.000000 -0.000000 -4.266690 90.608700 -1.356900 86.973600 -2.167810 5.279780 15.735700 0.000005 -0.000001 74.850500 85.608600 -79.279000 8.984550 -0.406207 -0.000000 0.649580 -2.019960 -8.839270 16.377300 -0.000001 -0.000001 3.983980 -1.030360 1.487730 6.456720 -0.000001 -0.000000 0.602641 1.057050 5.784870 12.994200 -0.242716 4.980390 -91.023000 2.592230 -68.455000 5.348090 -0.000007 -0.000001 -61.943700 22.305400 -6.386300 24.328600 0.000019 0.000005 8.138940 15.396900 -28.308400 22.291600 -0.000001 0.000005 10.346900 5.221970 2.161470 12.994500 -0.242716 -4.980390 91.069100 -4.124130 -75.451200 -5.348130 -0.000001 -0.000004 -8.646360 1.447630 -21.149800 -24.328900 0.000322 -0.000009 -6.292960 -3.130020 -63.649500 -22.291500 -0.000108 -0.000004 -4.993140 5.360470 -1.419390 -2.192480 -6.469440 -0.000000 -170.634000 -11.092900 -6.547240 39.081100 -0.000007 -0.000012 -0.191678 0.297820 32.765800 40.985400 -0.000006 -0.000013 -2.029740 6.723210 -70.293900 11.754300 -0.000000 0.000003 -0.000018 -0.000229 -16.586500 -2.192510 6.469440 -0.000001 -177.780000 18.522800 173.519000 -39.081100 -0.002282 -0.040193 0.039718 -0.057392 32.398800 -40.985400 0.000008 0.000006 8.645320 9.325350 -69.875500 -11.754300 -0.000006 -0.000006 -0.004950 -0.060976 -19.054000
